<?xml version="1.0" standalone="no"?>
<!DOCTYPE svg PUBLIC "-//W3C//DTD SVG 20010904//EN"
 "http://www.w3.org/TR/2001/REC-SVG-20010904/DTD/svg10.dtd">
<svg version="1.0" xmlns="http://www.w3.org/2000/svg"
 width="700.000000pt" height="700.000000pt" viewBox="0 0 700.000000 700.000000"
 preserveAspectRatio="xMidYMid meet">
<metadata>
Created by potrace 1.14, written by Peter Selinger 2001-2017
</metadata>
<g transform="translate(0.000000,700.000000) scale(0.100000,-0.100000)"
fill="#000000" stroke="none">
<path d="M3305 6059 c-138 -14 -181 -20 -289 -45 -148 -33 -227 -57 -358 -110
-834 -335 -1393 -1141 -1412 -2034 -6 -279 29 -512 114 -771 135 -405 362
-739 698 -1022 l84 -71 -99 -95 c-54 -53 -121 -116 -148 -141 -71 -64 -328
-303 -400 -371 -33 -32 -72 -67 -87 -78 -15 -12 -39 -46 -53 -76 -55 -112 -20
-224 88 -282 30 -17 151 -18 2012 -18 l1980 0 40 25 c22 13 48 34 57 45 52 61
64 154 29 222 -10 21 -86 103 -168 183 -416 409 -563 555 -563 561 0 3 28 28
63 55 333 260 594 625 737 1029 124 354 158 755 95 1125 -120 701 -562 1303
-1197 1629 -379 195 -812 280 -1223 240z"/>
</g>
</svg>
